<svg xmlns="http://www.w3.org/2000/svg" viewBox="0 0 1121.84 339.49"><defs><style>.cls-1{fill:#2b2b2b;}.cls-2{fill:#00b204;}</style></defs><g id="Layer_2" data-name="Layer 2"><g id="Layer_1-2" data-name="Layer 1"><g id="path202818"><path class="cls-1" d="M250.75,203.22c0-88.94,50.21-136.28,134.85-136.28s134.84,47.34,134.84,136.28H274.66c0,75.07,34.43,112.37,110.94,112.37,65,0,101.37-26.3,109.5-84.16H519C509,302.2,460.67,339.49,385.6,339.49,298.09,339.49,250.75,288.33,250.75,203.22ZM495.58,181.7c-6.7-62.64-42.56-90.85-110-90.85s-103.29,28.21-110,90.85Z"/></g><g id="path202820"><path class="cls-1" d="M661.71,239.56l70.77,95.15H704.75l-57.38-76.5Zm43-167.84h27.73l-71.25,95.63-13.39-19.12Z"/><polygon class="cls-2" points="537.39 71.72 634.93 203.22 537.39 334.71 509.65 334.71 607.2 203.22 509.65 71.72 537.39 71.72"/></g><g id="path202822"><path class="cls-1" d="M779.87,71.73v263H756v-263Z"/><circle class="cls-2" cx="767.83" cy="12.17" r="11.92"/></g><g id="path202824"><path class="cls-1" d="M832.17,0V334.72H808.26V0Z"/></g><g id="path202826"><path class="cls-1" d="M852.15,203.22c0-88.94,50.21-136.28,134.84-136.28s134.85,47.34,134.85,136.28H876.06c0,75.07,34.43,112.37,110.93,112.37,65,0,101.38-26.3,109.51-84.16h23.9c-10,70.77-58.33,108.06-133.41,108.06C899.49,339.49,852.15,288.33,852.15,203.22ZM1097,181.7c-6.69-62.64-42.55-90.85-110-90.85S883.71,119.06,877,181.7Z"/></g><polygon class="cls-1" points="225.04 334.43 201.51 294.73 201.51 294.96 26.64 0 23.91 0 0.34 0 0.11 0 23.91 40.14 23.91 39.76 198.78 334.72 201.51 334.72 225.08 334.72 225.41 334.72 225.41 334.43 225.04 334.43"/><polygon class="cls-1" points="225.41 290.69 225.41 0 201.51 0 201.51 250.37 225.41 290.69"/><polygon class="cls-1" points="0 44.18 0 334.72 23.91 334.72 23.91 84.51 0 44.18"/></g></g></svg>