<svg version="1.2" xmlns="http://www.w3.org/2000/svg" viewBox="0 0 1122 340" width="1122" height="340">
	<title>nexile_logo_gray</title>
	<style>
		.s0 { fill: #9f9f9f } 
		.s1 { fill: #00b204 } 
	</style>
	<g id="Layer_2">
		<g id="Layer_1-2">
			<g id="path202818">
				<path class="s0" d="m250.8 203.2c-0.1-88.9 50.2-136.3 134.8-136.3 84.6 0 134.8 47.4 134.8 136.3h-245.7c0 75.1 34.4 112.4 110.9 112.4 65 0 101.4-26.3 109.5-84.2h23.9c-10 70.8-58.3 108.1-133.4 108.1-87.5 0-134.9-51.2-134.9-136.3zm244.9-21.5c-6.7-62.6-42.6-90.8-110-90.8-67.5 0-103.3 28.2-110 90.8z"/>
			</g>
			<g id="path202820">
				<path class="s0" d="m661.7 239.6l70.8 95.1h-27.8l-57.3-76.5zm43-167.8h27.7l-71.3 95.6-13.3-19.1z"/>
				<path class="s1" d="m537.4 71.7l97.5 131.5-97.5 131.5h-27.8l97.6-131.5-97.5-131.5h27.7z"/>
			</g>
			<g id="path202822">
				<path class="s0" d="m779.9 71.7v263h-23.9v-263z"/>
				<path class="s1" d="m767.8 24.1c-6.6 0-11.9-5.3-11.9-11.9 0-6.6 5.3-12 11.9-12 6.6 0 12 5.4 12 12 0 6.6-5.4 11.9-12 11.9z"/>
			</g>
			<g id="path202824">
				<path class="s0" d="m832.2 0v334.7h-23.9v-334.7z"/>
			</g>
			<g id="path202826">
				<path class="s0" d="m852.1 203.2c0-88.9 50.3-136.3 134.9-136.3 84.6 0 134.8 47.4 134.8 136.3h-245.7c0 75.1 34.4 112.4 110.9 112.4 65 0 101.4-26.3 109.5-84.2h23.9c-10 70.8-58.3 108.1-133.4 108.1-87.5 0-134.9-51.2-134.9-136.3zm244.9-21.5c-6.7-62.6-42.6-90.8-110-90.8-67.5 0-103.3 28.2-110 90.8z"/>
			</g>
			<path class="s0" d="m225 334.4l-23.5-39.7v0.3l-174.9-295h-2.7-23.6-0.2l23.8 40.1v-0.3l174.9 294.9h2.7 23.6 0.3v-0.3h-0.4z"/>
			<path class="s0" d="m225.4 290.7v-290.7h-23.9v250.4l23.9 40.3z"/>
			<path class="s0" d="m0 44.2v290.5h23.9v-250.2l-23.9-40.3z"/>
		</g>
	</g>
</svg>